# xmcd
#
# Track frame offsets:
# 150
# 14827
# 31177
# 42339
# 57383
# 74055
# 87926
# 104271
# 126317
# 137063
# 153915
# 166415
# 182114
# 197338
# 210134
#
# Disc length: 3046 seconds
#
#
# Revision: 0
# Processed by: cddbd v1.5.1PL0 Copyright (c) Steve Scherf et al.
# Submitted via: FreeRIP 2.941 
#
DISCID=d00be40f
DTITLE=mala com alça - por que?
DYEAR=2005
DGENRE=forró
TTITLE0=la belle d'ju
TTITLE1=porque?
TTITLE2=confidência
TTITLE3=um dia perfeito
TTITLE4=mais e mais
TTITLE5=noite no forró
TTITLE6=deixa doido eu
TTITLE7=dá um beijo
TTITLE8=no meio das estrelas
TTITLE9=inovação
TTITLE10=oh! chuva
TTITLE11=forró da tribo
TTITLE12=ana maria
TTITLE13=relaxa
TTITLE14=coração
EXTD=by claudão
EXTT0=
EXTT1=
EXTT2=
EXTT3=
EXTT4=
EXTT5=
EXTT6=
EXTT7=
EXTT8=
EXTT9=
EXTT10=
EXTT11=
EXTT12=
EXTT13=
EXTT14=
PLAYORDER=
